<?xml version="1.0" standalone="no"?>
<!DOCTYPE svg PUBLIC "-//W3C//DTD SVG 20010904//EN"
 "http://www.w3.org/TR/2001/REC-SVG-20010904/DTD/svg10.dtd">
<svg version="1.0" xmlns="http://www.w3.org/2000/svg"
 width="377.000000pt" height="196.000000pt" viewBox="0 0 377.000000 196.000000"
 preserveAspectRatio="xMidYMid meet">

<g transform="translate(0.000000,196.000000) scale(0.100000,-0.100000)"
fill="#ffffff" stroke="none">
<path d="M790 940 l0 -719 176 -3 c97 -2 178 -1 180 1 2 2 4 123 4 268 l0 263
38 0 37 0 140 -265 140 -264 203 -1 c111 0 202 2 202 5 0 6 -267 505 -274 512
-7 8 -66 -8 -66 -17 0 -5 50 -101 110 -215 61 -113 110 -208 110 -210 0 -3
-53 -5 -118 -5 l-118 0 -141 263 -141 262 -96 3 -96 3 0 -266 0 -265 -105 0
-105 0 0 685 0 685 -40 0 -40 0 0 -720z"/>
<path d="M930 1000 l0 -660 40 0 40 0 0 625 0 625 198 0 c165 0 212 -3 275
-20 129 -33 215 -98 260 -199 28 -63 35 -208 14 -282 -44 -149 -169 -245 -345
-264 -35 -4 -62 -11 -60 -15 2 -4 59 -112 128 -239 l125 -231 43 0 44 0 -20
33 c-29 48 -202 374 -202 380 0 3 26 13 57 22 193 56 291 171 313 363 23 211
-62 387 -223 462 -116 54 -158 60 -434 60 l-253 0 0 -660z"/>
<path d="M2310 940 l0 -720 470 0 470 0 0 175 0 175 -295 0 -295 0 0 60 0 60
-35 0 -35 0 0 -95 0 -95 293 -2 292 -3 3 -102 3 -103 -401 0 -400 0 0 685 0
685 -35 0 -35 0 0 -720z"/>
<path d="M2450 1285 l0 -375 278 2 277 3 0 35 0 35 -242 3 -243 2 0 300 0 300
325 0 325 0 0 -105 0 -105 -215 0 -215 0 0 -35 0 -35 250 0 250 0 0 175 0 175
-395 0 -395 0 0 -375z"/>
<path d="M1080 1411 l0 -111 155 0 c202 0 245 -17 245 -95 0 -67 -88 -105
-245 -105 l-85 0 0 65 0 65 -35 0 -35 0 0 -101 0 -101 158 3 c151 4 159 5 216
34 77 38 99 76 93 157 -7 109 -68 144 -266 154 l-131 7 0 35 0 35 143 -5 c119
-4 150 -8 192 -27 100 -44 139 -107 140 -221 0 -90 -21 -139 -80 -181 -63 -45
-138 -59 -312 -59 l-153 0 0 -35 0 -35 154 0 c180 0 239 9 323 51 106 51 150
140 141 287 -7 130 -70 217 -191 265 -45 18 -79 22 -239 25 l-188 4 0 -111z"/>
<path d="M2590 1290 l0 -230 245 0 245 0 0 -105 0 -105 -315 0 -315 0 0 -250
0 -250 325 0 325 0 0 40 0 40 -290 0 -290 0 0 170 0 170 315 0 315 0 0 180 0
180 -245 0 -245 0 0 160 0 160 215 0 215 0 0 35 0 35 -250 0 -250 0 0 -230z"/>
<path d="M308 1088 l-78 -61 0 -107 0 -108 53 -45 53 -45 97 85 c85 74 97 88
97 117 0 21 -8 40 -22 54 -23 20 -23 20 -47 1 -18 -15 -21 -23 -13 -31 20 -20
13 -36 -34 -80 -75 -70 -82 -73 -105 -52 -16 14 -19 31 -19 103 l0 86 92 73
91 72 -44 0 c-38 -1 -54 -9 -121 -62z"/>
<path d="M423 1067 c-88 -77 -93 -83 -93 -122 0 -53 29 -75 67 -50 24 16 24
17 7 36 -16 18 -16 20 2 40 10 12 40 39 67 61 46 39 48 40 72 24 23 -15 25
-22 25 -101 l0 -84 -97 -75 -96 -76 44 0 c39 0 53 8 127 65 l82 65 0 103 0
102 -54 48 c-30 26 -56 47 -58 47 -2 -1 -45 -38 -95 -83z"/>
</g>
</svg>
